<svg width="219" height="35" viewBox="0 0 219 35" fill="none" xmlns="http://www.w3.org/2000/svg">
<path d="M17.1841 28.544C13.9453 28.544 11.2524 27.4761 9.06899 25.2667C6.88555 23.0573 5.83023 20.3323 5.83023 17.0181C5.83023 13.704 6.88555 10.9422 9.06899 8.7696C11.216 6.56017 13.9453 5.45545 17.1841 5.45545C20.714 5.45545 23.6616 6.74428 25.9906 9.43242L29.9208 6.04463C26.5728 2.17812 22.3151 0.226457 17.2205 0.226457C12.4897 0.226457 8.41396 1.80988 5.10242 5.01356C1.82727 8.21724 0.189697 12.231 0.189697 17.055C0.189697 21.8421 1.86366 25.8559 5.10242 29.0964C8.41396 32.2632 12.4533 33.8467 17.2205 33.8467C22.2424 33.8467 26.8276 31.6372 29.9572 27.918L26.0998 24.5302C23.8072 27.1815 20.8231 28.544 17.1841 28.544Z" fill="black"/>
<path d="M212.456 28.9122C212.456 28.3599 212.892 27.8812 213.475 27.8812C214.057 27.8812 214.494 28.3231 214.494 28.9122C214.494 29.4646 214.057 29.9433 213.475 29.9433C212.929 29.9065 212.456 29.4646 212.456 28.9122ZM210.709 27.8444L208.089 28.544C208.089 28.765 208.089 29.0227 208.089 29.2437L210.709 29.9433C210.927 30.017 211 30.2379 210.927 30.422L209.872 32.9261C210.054 33.0734 210.236 33.2206 210.418 33.3679L212.601 31.7477C212.747 31.6372 212.965 31.674 213.074 31.8213C213.074 31.8213 213.074 31.8582 213.111 31.8582L214.384 34.2517C214.494 34.2517 214.603 34.2149 214.712 34.1781C214.821 34.1412 214.93 34.1044 215.039 34.0676L215.149 31.3426C215.149 31.1585 215.331 31.0112 215.513 31.0112H215.549L218.205 31.5267C218.315 31.3058 218.424 31.1217 218.497 30.9007L216.459 29.0964C216.313 28.9859 216.313 28.765 216.422 28.6177L216.459 28.5808L218.497 26.8133C218.424 26.5923 218.315 26.3714 218.205 26.1873L215.549 26.7028C215.367 26.7396 215.185 26.6292 215.149 26.4451V26.4082L215.039 23.6833C214.821 23.6096 214.603 23.5728 214.348 23.536L213.074 25.9295C213.002 26.1136 212.783 26.1505 212.601 26.0768C212.601 26.0768 212.565 26.0768 212.565 26.04L210.381 24.4197C210.2 24.567 210.018 24.7143 209.836 24.8616L210.891 27.3657C210.964 27.5498 210.891 27.7339 210.709 27.8075C210.745 27.8075 210.709 27.8444 210.709 27.8444Z" fill="black"/>
<path d="M58.451 25.3403C56.3039 27.5129 53.611 28.6545 50.445 28.6545C47.2791 28.6545 44.5498 27.5498 42.4027 25.3403C40.2557 23.1309 39.164 20.4059 39.164 17.0918C39.164 13.8145 40.2193 11.0895 42.4027 8.84324C44.5498 6.59699 47.2791 5.49227 50.445 5.49227C53.611 5.49227 56.3039 6.59699 58.451 8.84324C60.598 11.0895 61.7261 13.8145 61.7261 17.0918C61.7261 20.3323 60.598 23.0941 58.451 25.3403ZM50.445 0.189636C45.7143 0.189636 41.7113 1.80989 38.4362 5.08721C35.161 8.29089 33.5234 12.3047 33.5234 17.055C33.5234 21.8052 35.1974 25.819 38.4362 29.0227C41.6749 32.2264 45.7143 33.8835 50.445 33.8835C55.1758 33.8835 59.2515 32.2632 62.4903 29.0227C65.7654 25.819 67.403 21.8052 67.403 17.055C67.403 12.3047 65.7291 8.29089 62.4175 5.08721C59.1788 1.84671 55.1758 0.189636 50.445 0.189636Z" fill="black"/>
<path d="M101.865 23.1677L94.6959 1.07341H89.674L82.5051 23.1677L74.8267 1.07341H68.8223L79.8486 33.0365H85.016L92.1486 11.0527L99.2448 33.0365H104.485L115.511 1.07341H109.543L101.865 23.1677ZM133.452 27.8812H126.902V18.7857H133.415C136.399 18.7857 138.583 20.7005 138.583 23.2782C138.547 25.9295 136.4 27.8812 133.452 27.8812ZM126.902 6.30239H132.105C134.544 6.30239 136.29 7.92265 136.29 10.0584C136.29 12.4152 134.544 13.9986 132.069 13.9986H126.902V6.30239ZM137.819 15.6925C140.439 14.7351 142.004 12.3415 142.004 9.28513C142.004 6.9284 141.13 4.97674 139.347 3.46696C137.6 1.92036 135.453 1.11023 132.87 1.11023H121.043V33.0733H134.471C137.346 33.0733 139.675 32.1896 141.567 30.422C143.496 28.6177 144.442 26.3346 144.442 23.6464C144.369 19.559 142.004 16.429 137.819 15.6925Z" fill="black"/>
<path d="M173.736 25.3403C171.589 27.5129 168.896 28.6545 165.73 28.6545C162.564 28.6545 159.835 27.5498 157.688 25.3403C155.541 23.1309 154.449 20.4059 154.449 17.0918C154.449 13.8145 155.505 11.0895 157.688 8.84324C159.835 6.59699 162.564 5.49227 165.73 5.49227C168.896 5.49227 171.589 6.59699 173.736 8.84324C175.883 11.0895 177.011 13.8145 177.011 17.0918C177.011 20.3323 175.883 23.0941 173.736 25.3403ZM165.73 0.189636C161 0.189636 156.997 1.80989 153.721 5.08721C150.446 8.29089 148.809 12.3047 148.809 17.055C148.809 21.8052 150.483 25.819 153.721 29.0227C156.997 32.2264 161 33.8835 165.73 33.8835C170.461 33.8835 174.537 32.2632 177.776 29.0227C181.051 25.819 182.688 21.8052 182.688 17.055C182.688 12.3047 181.014 8.29089 177.703 5.08721C174.464 1.84671 170.461 0.189636 165.73 0.189636Z" fill="black"/>
<path d="M208.016 1.11023L198.627 16.8708L189.202 1.11023H182.87L195.425 21.9525L188.802 33.1102H195.243L214.494 1.14705H208.016V1.11023Z" fill="black"/>
</svg>
